<svg width="438px" height="107px" viewBox="0 0 438 107" version="1.1" xmlns="http://www.w3.org/2000/svg" xmlns:xlink="http://www.w3.org/1999/xlink">
    <!-- Generator: Sketch 56.3 (81716) - https://sketch.com -->
    <title>Group</title>
    <desc>Created with Sketch.</desc>
    <g id="Logo" stroke="none" stroke-width="1" fill="none" fill-rule="evenodd">
        <g id="logo_setalag-copy-5" transform="translate(-65.000000, -48.000000)">
            <g id="Group" transform="translate(65.000000, 30.000000)">
                <g id="SETAL-AG" transform="translate(120.000000, 0.000000)" fill="#4E4E4E" fill-rule="nonzero">
                    <path d="M23.6,34.584 C31.6560403,34.584 38.1666418,36.9906426 43.132,41.804 L36.216,49.936 C32.6693156,47.0986525 28.8946867,45.68 24.892,45.68 C23.017324,45.68 21.5986715,46.00933 20.636,46.668 C19.6733285,47.32667 19.192,48.2639939 19.192,49.48 C19.192,50.3920046 19.4579973,51.1393304 19.99,51.722 C20.5220027,52.3046696 21.4086605,52.8493308 22.65,53.356 C23.8913395,53.8626692 25.9053194,54.5719954 28.692,55.484 C34.2653612,57.2573422 38.2806544,59.4866532 40.738,62.172 C43.1953456,64.8573468 44.424,68.5306434 44.424,73.192 C44.424,76.5866836 43.5246757,79.5886536 41.726,82.198 C39.9273243,84.8073464 37.3560167,86.8466593 34.012,88.316 C30.6679833,89.7853407 26.7160228,90.52 22.156,90.52 C17.4946434,90.52 13.3906844,89.7853407 9.844,88.316 C6.2973156,86.8466593 3.30801216,84.9213452 0.876,82.54 L8.552,74.104 C12.5546867,77.5493506 16.8866434,79.272 21.548,79.272 C23.7266776,79.272 25.3733278,78.8286711 26.488,77.942 C27.6026722,77.0553289 28.16,75.9026738 28.16,74.484 C28.16,73.4199947 27.9193357,72.5333369 27.438,71.824 C26.9566643,71.1146631 26.1080061,70.456003 24.892,69.848 C23.6759939,69.239997 21.9026783,68.5813369 19.572,67.872 C13.4413027,65.946657 9.16001216,63.6286802 6.728,60.918 C4.29598784,58.2073198 3.08,54.8253536 3.08,50.772 C3.08,47.4786502 3.9666578,44.6160122 5.74,42.184 C7.5133422,39.7519878 9.95798442,37.8773399 13.074,36.56 C16.1900156,35.2426601 19.6986472,34.584 23.6,34.584 Z M83.564,36.104 L81.968,46.972 L64.488,46.972 L64.488,56.852 L79.84,56.852 L79.84,67.416 L64.488,67.416 L64.488,78.056 L83.184,78.056 L83.184,89 L48.832,89 L48.832,36.104 L83.564,36.104 Z M127.568,36.104 L125.972,47.808 L113.964,47.808 L113.964,89 L98.308,89 L98.308,47.808 L85.464,47.808 L85.464,36.104 L127.568,36.104 Z M154.396,89 L152.344,78.74 L139.804,78.74 L137.828,89 L121.488,89 L136.916,36.104 L155.612,36.104 L170.964,89 L154.396,89 Z M142.008,67.796 L150.14,67.796 L146.036,47.048 L142.008,67.796 Z M187.988,36.104 L187.988,76.992 L207.976,76.992 L206.38,89 L172.332,89 L172.332,36.104 L187.988,36.104 Z M256.464,89 L254.412,78.74 L241.872,78.74 L239.896,89 L223.556,89 L238.984,36.104 L257.68,36.104 L273.032,89 L256.464,89 Z M244.076,67.796 L252.208,67.796 L248.104,47.048 L244.076,67.796 Z M298.568,34.584 C302.368019,34.584 305.851318,35.217327 309.018,36.484 C312.184683,37.750673 314.958655,39.4226563 317.34,41.5 L309.74,49.404 C307.865324,48.0359932 306.168008,47.048003 304.648,46.44 C303.127992,45.831997 301.405343,45.528 299.48,45.528 C295.781315,45.528 292.94401,46.9339859 290.968,49.746 C288.99199,52.5580141 288.004,56.826638 288.004,62.552 C288.004,66.8586882 288.307997,70.2406544 288.916,72.698 C289.524003,75.1553456 290.473994,76.8906616 291.766,77.904 C293.058006,78.9173384 294.767989,79.424 296.896,79.424 C298.770676,79.424 300.569325,78.9933376 302.292,78.132 L302.292,68.48 L296.972,68.48 L295.528,57.916 L317.34,57.916 L317.34,84.44 C314.553319,86.365343 311.361351,87.8599947 307.764,88.924 C304.166649,89.9880053 300.696017,90.52 297.352,90.52 C288.687957,90.52 282.278687,88.151357 278.124,83.414 C273.969313,78.676643 271.892,71.6973794 271.892,62.476 C271.892,56.6493042 273.031989,51.6333544 275.312,47.428 C277.592011,43.2226456 280.758646,40.0306776 284.812,37.852 C288.865354,35.6733224 293.450641,34.584 298.568,34.584 Z" id="SETALAG"></path>
                </g>
                <g id="AUSSENWÄRMEDÄMMUNG" transform="translate(124.000000, 91.000000)" fill="#B6A16F" fill-rule="nonzero">
                    <path d="M13.604,27 L12.096,21.983 L4.527,21.983 L3.019,27 L0.235,27 L6.644,7.019 L10.124,7.019 L16.504,27 L13.604,27 Z M5.194,19.75 L11.429,19.75 L8.326,9.31 L5.194,19.75 Z M30.801,27 L28.51,27 L28.307,24.622 C27.7269971,25.5693381 27.0600038,26.2604978 26.306,26.6955 C25.5519962,27.1305022 24.6336721,27.348 23.551,27.348 C22.2169933,27.348 21.1730038,26.9420041 20.419,26.13 C19.6649962,25.3179959 19.288,24.1676741 19.288,22.679 L19.288,11.717 L21.956,11.717 L21.956,22.389 C21.956,23.4330052 22.1396648,24.1724978 22.507,24.6075 C22.8743352,25.0425022 23.4736625,25.26 24.305,25.26 C25.7936741,25.26 27.0696613,24.3803421 28.133,22.621 L28.133,11.717 L30.801,11.717 L30.801,27 Z M40.458,11.369 C41.5020052,11.369 42.4396625,11.5139986 43.271,11.804 C44.1023375,12.0940014 44.8949962,12.5289971 45.649,13.109 L44.518,14.791 C43.8219965,14.3463311 43.1598365,14.0176677 42.5315,13.805 C41.9031635,13.5923323 41.2410035,13.486 40.545,13.486 C39.6749956,13.486 38.9886692,13.6648315 38.486,14.0225 C37.9833308,14.3801685 37.732,14.8683302 37.732,15.487 C37.732,16.1056698 37.968831,16.5889983 38.4425,16.937 C38.916169,17.2850017 39.7716605,17.6233317 41.009,17.952 C42.7103418,18.3773355 43.9814958,18.9573297 44.8225,19.692 C45.6635042,20.4266703 46.084,21.4319936 46.084,22.708 C46.084,24.2160075 45.4991725,25.3663294 44.3295,26.159 C43.1598275,26.9516706 41.7340084,27.348 40.052,27.348 C37.7319884,27.348 35.808341,26.6810067 34.281,25.347 L35.702,23.723 C36.9973398,24.7090049 38.4279922,25.202 39.994,25.202 C40.9993384,25.202 41.7968304,24.9941687 42.3865,24.5785 C42.9761696,24.1628313 43.271,23.5973369 43.271,22.882 C43.271,22.3599974 43.1646677,21.9395016 42.952,21.6205 C42.7393323,21.3014984 42.3720026,21.0211679 41.85,20.7795 C41.3279974,20.5378321 40.5643384,20.281668 39.559,20.011 C37.9349919,19.5856645 36.7605036,19.0153369 36.0355,18.3 C35.3104964,17.5846631 34.948,16.6760055 34.948,15.574 C34.948,14.7813294 35.184831,14.0611699 35.6585,13.4135 C36.132169,12.7658301 36.7894958,12.2631685 37.6305,11.9055 C38.4715042,11.5478315 39.4139948,11.369 40.458,11.369 Z M53.711,11.369 C54.7550052,11.369 55.6926625,11.5139986 56.524,11.804 C57.3553375,12.0940014 58.1479962,12.5289971 58.902,13.109 L57.771,14.791 C57.0749965,14.3463311 56.4128365,14.0176677 55.7845,13.805 C55.1561635,13.5923323 54.4940035,13.486 53.798,13.486 C52.9279956,13.486 52.2416692,13.6648315 51.739,14.0225 C51.2363308,14.3801685 50.985,14.8683302 50.985,15.487 C50.985,16.1056698 51.221831,16.5889983 51.6955,16.937 C52.169169,17.2850017 53.0246605,17.6233317 54.262,17.952 C55.9633418,18.3773355 57.2344958,18.9573297 58.0755,19.692 C58.9165042,20.4266703 59.337,21.4319936 59.337,22.708 C59.337,24.2160075 58.7521725,25.3663294 57.5825,26.159 C56.4128275,26.9516706 54.9870084,27.348 53.305,27.348 C50.9849884,27.348 49.061341,26.6810067 47.534,25.347 L48.955,23.723 C50.2503398,24.7090049 51.6809922,25.202 53.247,25.202 C54.2523384,25.202 55.0498304,24.9941687 55.6395,24.5785 C56.2291696,24.1628313 56.524,23.5973369 56.524,22.882 C56.524,22.3599974 56.4176677,21.9395016 56.205,21.6205 C55.9923323,21.3014984 55.6250026,21.0211679 55.103,20.7795 C54.5809974,20.5378321 53.8173384,20.281668 52.812,20.011 C51.1879919,19.5856645 50.0135036,19.0153369 49.2885,18.3 C48.5634964,17.5846631 48.201,16.6760055 48.201,15.574 C48.201,14.7813294 48.437831,14.0611699 48.9115,13.4135 C49.385169,12.7658301 50.0424958,12.2631685 50.8835,11.9055 C51.7245042,11.5478315 52.6669948,11.369 53.711,11.369 Z M74.649,18.909 C74.649,19.3536689 74.6296669,19.8079977 74.591,20.272 L64.847,20.272 C64.9630006,21.9540084 65.3883297,23.1913294 66.123,23.984 C66.8576703,24.7766706 67.8049942,25.173 68.965,25.173 C69.6996703,25.173 70.3763302,25.0666677 70.995,24.854 C71.6136698,24.6413323 72.2613299,24.3030023 72.938,23.839 L74.098,25.434 C72.4739919,26.7100064 70.695343,27.348 68.762,27.348 C66.6353227,27.348 64.9775059,26.652007 63.7885,25.26 C62.5994941,23.867993 62.005,21.9540122 62.005,19.518 C62.005,17.9326587 62.2611641,16.5261728 62.7735,15.2985 C63.2858359,14.0708272 64.0204952,13.1090035 64.9775,12.413 C65.9345048,11.7169965 67.0606602,11.369 68.356,11.369 C70.3860101,11.369 71.9423279,12.0359933 73.025,13.37 C74.1076721,14.7040067 74.649,16.5503215 74.649,18.909 Z M72.01,18.126 C72.01,16.6179925 71.7103363,15.4676706 71.111,14.675 C70.5116637,13.8823294 69.6126727,13.486 68.414,13.486 C66.2293224,13.486 65.0403343,15.0906506 64.847,18.3 L72.01,18.3 L72.01,18.126 Z M86.104,11.369 C87.496007,11.369 88.5834961,11.7846625 89.3665,12.616 C90.1495039,13.4473375 90.541,14.5879928 90.541,16.038 L90.541,27 L87.873,27 L87.873,16.415 C87.873,15.3323279 87.670002,14.5686689 87.264,14.124 C86.857998,13.6793311 86.2586706,13.457 85.466,13.457 C84.6539959,13.457 83.9386698,13.6889977 83.32,14.153 C82.7013302,14.6170023 82.121336,15.2839957 81.58,16.154 L81.58,27 L78.912,27 L78.912,11.717 L81.203,11.717 L81.435,13.979 C81.976336,13.1669959 82.6481627,12.5290023 83.4505,12.065 C84.2528373,11.6009977 85.1373285,11.369 86.104,11.369 Z M113.364,11.717 L109.884,27 L106.259,27 L103.591,14.124 L100.836,27 L97.298,27 L93.731,11.717 L96.399,11.717 L99.154,25.144 L102.17,11.717 L105.157,11.717 L108.028,25.144 L110.812,11.717 L113.364,11.717 Z M126.646,23.433 C126.646,24.0516698 126.752332,24.5108318 126.965,24.8105 C127.177668,25.1101682 127.496665,25.3373326 127.922,25.492 L127.313,27.348 C126.520329,27.2513329 125.882336,27.0290017 125.399,26.681 C124.915664,26.3329983 124.558001,25.7916703 124.326,25.057 C123.301328,26.584341 121.783677,27.348 119.773,27.348 C118.264992,27.348 117.076004,26.9226709 116.206,26.072 C115.335996,25.2213291 114.901,24.1096735 114.901,22.737 C114.901,21.1129919 115.485827,19.8660044 116.6555,18.996 C117.825173,18.1259957 119.482989,17.691 121.629,17.691 L123.978,17.691 L123.978,16.56 C123.978,15.4773279 123.717003,14.7040023 123.195,14.24 C122.672997,13.7759977 121.870672,13.544 120.788,13.544 C119.666661,13.544 118.294008,13.814664 116.67,14.356 L116.003,12.413 C117.897676,11.7169965 119.656992,11.369 121.281,11.369 C123.079009,11.369 124.422662,11.8088289 125.312,12.6885 C126.201338,13.5681711 126.646,14.8199919 126.646,16.444 L126.646,23.433 Z M120.382,25.347 C121.909341,25.347 123.107996,24.5543413 123.978,22.969 L123.978,19.46 L121.977,19.46 C119.154319,19.46 117.743,20.5039896 117.743,22.592 C117.743,23.5006712 117.965331,24.1869977 118.41,24.651 C118.854669,25.1150023 119.511996,25.347 120.382,25.347 Z M118.12,4.728 C118.584002,4.728 118.975498,4.8874984 119.2945,5.2065 C119.613502,5.5255016 119.773,5.91699768 119.773,6.381 C119.773,6.84500232 119.613502,7.2364984 119.2945,7.5555 C118.975498,7.87450159 118.584002,8.034 118.12,8.034 C117.636664,8.034 117.235502,7.87450159 116.9165,7.5555 C116.597498,7.2364984 116.438,6.84500232 116.438,6.381 C116.438,5.91699768 116.597498,5.5255016 116.9165,5.2065 C117.235502,4.8874984 117.636664,4.728 118.12,4.728 Z M124.181,4.728 C124.664336,4.728 125.065498,4.8874984 125.3845,5.2065 C125.703502,5.5255016 125.863,5.91699768 125.863,6.381 C125.863,6.84500232 125.703502,7.2364984 125.3845,7.5555 C125.065498,7.87450159 124.664336,8.034 124.181,8.034 C123.716998,8.034 123.325502,7.87450159 123.0065,7.5555 C122.687498,7.2364984 122.528,6.84500232 122.528,6.381 C122.528,5.91699768 122.687498,5.5255016 123.0065,5.2065 C123.325502,4.8874984 123.716998,4.728 124.181,4.728 Z M138.768,11.369 C139.309336,11.369 139.811998,11.4269994 140.276,11.543 L139.783,14.153 C139.318998,14.0369994 138.874335,13.979 138.449,13.979 C137.501662,13.979 136.738003,14.3269965 136.158,15.023 C135.577997,15.7190035 135.123668,16.8016593 134.795,18.271 L134.795,27 L132.127,27 L132.127,11.717 L134.418,11.717 L134.679,14.82 C135.085002,13.6793276 135.635997,12.8190029 136.332,12.239 C137.028003,11.6589971 137.839995,11.369 138.768,11.369 Z M158.662,11.369 C159.918673,11.369 160.923996,11.7894958 161.678,12.6305 C162.432004,13.4715042 162.809,14.6073262 162.809,16.038 L162.809,27 L160.141,27 L160.141,16.415 C160.141,14.4429901 159.425674,13.457 157.995,13.457 C157.240996,13.457 156.603003,13.6744978 156.081,14.1095 C155.558997,14.5445022 154.998336,15.2259954 154.399,16.154 L154.399,27 L151.731,27 L151.731,16.415 C151.731,14.4429901 151.015674,13.457 149.585,13.457 C148.811663,13.457 148.164003,13.6793311 147.642,14.124 C147.119997,14.5686689 146.569003,15.2453288 145.989,16.154 L145.989,27 L143.321,27 L143.321,11.717 L145.612,11.717 L145.844,13.95 C146.984672,12.2293247 148.453991,11.369 150.252,11.369 C151.199338,11.369 152.006497,11.6106642 152.6735,12.094 C153.340503,12.5773357 153.818999,13.2539957 154.109,14.124 C154.708336,13.2346622 155.370496,12.553169 156.0955,12.0795 C156.820504,11.605831 157.675995,11.369 158.662,11.369 Z M179.716,18.909 C179.716,19.3536689 179.696667,19.8079977 179.658,20.272 L169.914,20.272 C170.030001,21.9540084 170.45533,23.1913294 171.19,23.984 C171.92467,24.7766706 172.871994,25.173 174.032,25.173 C174.76667,25.173 175.44333,25.0666677 176.062,24.854 C176.68067,24.6413323 177.32833,24.3030023 178.005,23.839 L179.165,25.434 C177.540992,26.7100064 175.762343,27.348 173.829,27.348 C171.702323,27.348 170.044506,26.652007 168.8555,25.26 C167.666494,23.867993 167.072,21.9540122 167.072,19.518 C167.072,17.9326587 167.328164,16.5261728 167.8405,15.2985 C168.352836,14.0708272 169.087495,13.1090035 170.0445,12.413 C171.001505,11.7169965 172.12766,11.369 173.423,11.369 C175.45301,11.369 177.009328,12.0359933 178.092,13.37 C179.174672,14.7040067 179.716,16.5503215 179.716,18.909 Z M177.077,18.126 C177.077,16.6179925 176.777336,15.4676706 176.178,14.675 C175.578664,13.8823294 174.679673,13.486 173.481,13.486 C171.296322,13.486 170.107334,15.0906506 169.914,18.3 L177.077,18.3 L177.077,18.126 Z M195.811,5.569 L195.811,27 L193.462,27 L193.201,24.883 C192.698331,25.6563372 192.070004,26.2604978 191.316,26.6955 C190.561996,27.1305022 189.721005,27.348 188.793,27.348 C186.975658,27.348 185.559505,26.6326738 184.5445,25.202 C183.529495,23.7713262 183.022,21.8476788 183.022,19.431 C183.022,17.8649922 183.263664,16.4730061 183.747,15.255 C184.230336,14.0369939 184.926329,13.0848368 185.835,12.3985 C186.743671,11.7121632 187.806994,11.369 189.025,11.369 C190.591008,11.369 191.963661,11.997327 193.143,13.254 L193.143,5.25 L195.811,5.569 Z M189.373,25.231 C190.185004,25.231 190.880997,25.0425019 191.461,24.6655 C192.041003,24.2884981 192.601664,23.7230038 193.143,22.969 L193.143,15.487 C192.640331,14.8296634 192.103836,14.331835 191.5335,13.9935 C190.963164,13.655165 190.320337,13.486 189.605,13.486 C188.425661,13.486 187.51217,13.9789951 186.8645,14.965 C186.21683,15.9510049 185.893,17.4203236 185.893,19.373 C185.893,21.3450099 186.192664,22.8143285 186.792,23.781 C187.391336,24.7476715 188.251661,25.231 189.373,25.231 Z M211.616,23.433 C211.616,24.0516698 211.722332,24.5108318 211.935,24.8105 C212.147668,25.1101682 212.466665,25.3373326 212.892,25.492 L212.283,27.348 C211.490329,27.2513329 210.852336,27.0290017 210.369,26.681 C209.885664,26.3329983 209.528001,25.7916703 209.296,25.057 C208.271328,26.584341 206.753677,27.348 204.743,27.348 C203.234992,27.348 202.046004,26.9226709 201.176,26.072 C200.305996,25.2213291 199.871,24.1096735 199.871,22.737 C199.871,21.1129919 200.455827,19.8660044 201.6255,18.996 C202.795173,18.1259957 204.452989,17.691 206.599,17.691 L208.948,17.691 L208.948,16.56 C208.948,15.4773279 208.687003,14.7040023 208.165,14.24 C207.642997,13.7759977 206.840672,13.544 205.758,13.544 C204.636661,13.544 203.264008,13.814664 201.64,14.356 L200.973,12.413 C202.867676,11.7169965 204.626992,11.369 206.251,11.369 C208.049009,11.369 209.392662,11.8088289 210.282,12.6885 C211.171338,13.5681711 211.616,14.8199919 211.616,16.444 L211.616,23.433 Z M205.352,25.347 C206.879341,25.347 208.077996,24.5543413 208.948,22.969 L208.948,19.46 L206.947,19.46 C204.124319,19.46 202.713,20.5039896 202.713,22.592 C202.713,23.5006712 202.935331,24.1869977 203.38,24.651 C203.824669,25.1150023 204.481996,25.347 205.352,25.347 Z M203.09,4.728 C203.554002,4.728 203.945498,4.8874984 204.2645,5.2065 C204.583502,5.5255016 204.743,5.91699768 204.743,6.381 C204.743,6.84500232 204.583502,7.2364984 204.2645,7.5555 C203.945498,7.87450159 203.554002,8.034 203.09,8.034 C202.606664,8.034 202.205502,7.87450159 201.8865,7.5555 C201.567498,7.2364984 201.408,6.84500232 201.408,6.381 C201.408,5.91699768 201.567498,5.5255016 201.8865,5.2065 C202.205502,4.8874984 202.606664,4.728 203.09,4.728 Z M209.151,4.728 C209.634336,4.728 210.035498,4.8874984 210.3545,5.2065 C210.673502,5.5255016 210.833,5.91699768 210.833,6.381 C210.833,6.84500232 210.673502,7.2364984 210.3545,7.5555 C210.035498,7.87450159 209.634336,8.034 209.151,8.034 C208.686998,8.034 208.295502,7.87450159 207.9765,7.5555 C207.657498,7.2364984 207.498,6.84500232 207.498,6.381 C207.498,5.91699768 207.657498,5.5255016 207.9765,5.2065 C208.295502,4.8874984 208.686998,4.728 209.151,4.728 Z M232.438,11.369 C233.694673,11.369 234.699996,11.7894958 235.454,12.6305 C236.208004,13.4715042 236.585,14.6073262 236.585,16.038 L236.585,27 L233.917,27 L233.917,16.415 C233.917,14.4429901 233.201674,13.457 231.771,13.457 C231.016996,13.457 230.379003,13.6744978 229.857,14.1095 C229.334997,14.5445022 228.774336,15.2259954 228.175,16.154 L228.175,27 L225.507,27 L225.507,16.415 C225.507,14.4429901 224.791674,13.457 223.361,13.457 C222.587663,13.457 221.940003,13.6793311 221.418,14.124 C220.895997,14.5686689 220.345003,15.2453288 219.765,16.154 L219.765,27 L217.097,27 L217.097,11.717 L219.388,11.717 L219.62,13.95 C220.760672,12.2293247 222.229991,11.369 224.028,11.369 C224.975338,11.369 225.782497,11.6106642 226.4495,12.094 C227.116503,12.5773357 227.594999,13.2539957 227.885,14.124 C228.484336,13.2346622 229.146496,12.553169 229.8715,12.0795 C230.596504,11.605831 231.451995,11.369 232.438,11.369 Z M257.291,11.369 C258.547673,11.369 259.552996,11.7894958 260.307,12.6305 C261.061004,13.4715042 261.438,14.6073262 261.438,16.038 L261.438,27 L258.77,27 L258.77,16.415 C258.77,14.4429901 258.054674,13.457 256.624,13.457 C255.869996,13.457 255.232003,13.6744978 254.71,14.1095 C254.187997,14.5445022 253.627336,15.2259954 253.028,16.154 L253.028,27 L250.36,27 L250.36,16.415 C250.36,14.4429901 249.644674,13.457 248.214,13.457 C247.440663,13.457 246.793003,13.6793311 246.271,14.124 C245.748997,14.5686689 245.198003,15.2453288 244.618,16.154 L244.618,27 L241.95,27 L241.95,11.717 L244.241,11.717 L244.473,13.95 C245.613672,12.2293247 247.082991,11.369 248.881,11.369 C249.828338,11.369 250.635497,11.6106642 251.3025,12.094 C251.969503,12.5773357 252.447999,13.2539957 252.738,14.124 C253.337336,13.2346622 253.999496,12.553169 254.7245,12.0795 C255.449504,11.605831 256.304995,11.369 257.291,11.369 Z M278.171,27 L275.88,27 L275.677,24.622 C275.096997,25.5693381 274.430004,26.2604978 273.676,26.6955 C272.921996,27.1305022 272.003672,27.348 270.921,27.348 C269.586993,27.348 268.543004,26.9420041 267.789,26.13 C267.034996,25.3179959 266.658,24.1676741 266.658,22.679 L266.658,11.717 L269.326,11.717 L269.326,22.389 C269.326,23.4330052 269.509665,24.1724978 269.877,24.6075 C270.244335,25.0425022 270.843663,25.26 271.675,25.26 C273.163674,25.26 274.439661,24.3803421 275.503,22.621 L275.503,11.717 L278.171,11.717 L278.171,27 Z M290.873,11.369 C292.265007,11.369 293.352496,11.7846625 294.1355,12.616 C294.918504,13.4473375 295.31,14.5879928 295.31,16.038 L295.31,27 L292.642,27 L292.642,16.415 C292.642,15.3323279 292.439002,14.5686689 292.033,14.124 C291.626998,13.6793311 291.027671,13.457 290.235,13.457 C289.422996,13.457 288.70767,13.6889977 288.089,14.153 C287.47033,14.6170023 286.890336,15.2839957 286.349,16.154 L286.349,27 L283.681,27 L283.681,11.717 L285.972,11.717 L286.204,13.979 C286.745336,13.1669959 287.417163,12.5290023 288.2195,12.065 C289.021837,11.6009977 289.906328,11.369 290.873,11.369 Z M313,12.413 C312.419997,12.6063343 311.782003,12.7319997 311.086,12.79 C310.389997,12.8480003 309.539338,12.877 308.534,12.877 C310.332009,13.6890041 311.231,14.9746579 311.231,16.734 C311.231,18.261341 310.709005,19.5083285 309.665,20.475 C308.620995,21.4416715 307.200009,21.925 305.402,21.925 C304.705997,21.925 304.058336,21.8283343 303.459,21.635 C303.226999,21.7896674 303.043334,21.9974987 302.908,22.2585 C302.772666,22.5195013 302.705,22.785332 302.705,23.056 C302.705,23.8873375 303.371993,24.303 304.706,24.303 L307.142,24.303 C308.166672,24.303 309.075329,24.4866648 309.868,24.854 C310.660671,25.2213352 311.274498,25.7239968 311.7095,26.362 C312.144502,27.0000032 312.362,27.7249959 312.362,28.537 C312.362,30.0256741 311.753006,31.1711627 310.535,31.9735 C309.316994,32.7758373 307.538345,33.177 305.199,33.177 C303.555658,33.177 302.255505,33.007835 301.2985,32.6695 C300.341495,32.331165 299.660002,31.8236701 299.254,31.147 C298.847998,30.4703299 298.645,29.6003386 298.645,28.537 L301.052,28.537 C301.052,29.1556698 301.167999,29.6438315 301.4,30.0015 C301.632001,30.3591685 302.047664,30.6298324 302.647,30.8135 C303.246336,30.9971676 304.096994,31.089 305.199,31.089 C306.803675,31.089 307.949163,30.8908353 308.6355,30.4945 C309.321837,30.0981647 309.665,29.5036706 309.665,28.711 C309.665,27.9956631 309.394336,27.4543352 308.853,27.087 C308.311664,26.7196648 307.557671,26.536 306.591,26.536 L304.184,26.536 C302.88866,26.536 301.907503,26.2605028 301.2405,25.7095 C300.573497,25.1584972 300.24,24.4673375 300.24,23.636 C300.24,23.1333308 300.384999,22.6500023 300.675,22.186 C300.965001,21.7219977 301.380664,21.3063352 301.922,20.939 C301.032662,20.4749977 300.380169,19.8998368 299.9645,19.2135 C299.548831,18.5271632 299.341,17.6910049 299.341,16.705 C299.341,15.6803282 299.597164,14.7620041 300.1095,13.95 C300.621836,13.1379959 301.327496,12.5048356 302.2265,12.0505 C303.125504,11.5961644 304.125994,11.369 305.228,11.369 C306.426673,11.3883334 307.431996,11.3448339 308.244,11.2385 C309.056004,11.1321661 309.727831,10.9871676 310.2595,10.8035 C310.791169,10.6198324 311.443663,10.3540017 312.217,10.006 L313,12.413 Z M305.228,13.283 C304.222662,13.283 303.444503,13.5971635 302.8935,14.2255 C302.342497,14.8538365 302.067,15.6803282 302.067,16.705 C302.067,17.7490052 302.347331,18.5851635 302.908,19.2135 C303.468669,19.8418365 304.261328,20.156 305.286,20.156 C306.330005,20.156 307.127497,19.851503 307.6785,19.2425 C308.229503,18.633497 308.505,17.7780055 308.505,16.676 C308.505,14.4139887 307.412678,13.283 305.228,13.283 Z" id="Aussenwärmedämmung"></path>
                </g>
                <polygon id="Rectangle-3" fill="#A6A6A6" points="50.7921989 18 78 18 27.2078011 120 0 120"></polygon>
                <polygon id="Rectangle-3-Copy" fill="#B6A16F" points="89.1410169 18 116 18 65.8589831 120 39 120"></polygon>
            </g>
        </g>
    </g>
</svg>